<svg width="60" height="60" viewBox="0 0 60 60" fill="none" xmlns="http://www.w3.org/2000/svg">
    <path fill-rule="evenodd" clip-rule="evenodd"
        d="M25.0758 43.8258C24.3436 44.5581 23.1564 44.5581 22.4242 43.8258L9.92418 31.3258C9.19195 30.5935 9.19195 29.4065 9.92418 28.6743L22.4242 16.1743C23.1564 15.442 24.3436 15.442 25.0758 16.1743C25.808 16.9065 25.808 18.0935 25.0758 18.8258L13.9017 30L25.0758 41.1742C25.808 41.9064 25.808 43.0936 25.0758 43.8258Z"
        fill="#1C274C" />
    <g opacity="0.5">
        <path
            d="M36.25 31.875C38.6335 31.875 42.1668 31.1755 45.158 29.0217C48.245 26.799 50.625 23.111 50.625 17.5C50.625 16.4645 49.7855 15.625 48.75 15.625C47.7145 15.625 46.875 16.4645 46.875 17.5C46.875 21.889 45.0883 24.451 42.967 25.9783C40.75 27.5745 38.0333 28.125 36.25 28.125H15.7766L13.9016 30L15.7766 31.875H36.25Z"
            fill="#1C274C" />
        <path
            d="M9.44098 30.4943C9.33588 30.108 9.35635 29.695 9.50238 29.3195C9.42013 29.5303 9.375 29.76 9.375 30C9.375 30.171 9.39798 30.3368 9.44098 30.4943Z"
            fill="#1C274C" />
    </g>
</svg>