<svg width="29" height="21" viewBox="0 0 29 21" fill="none" xmlns="http://www.w3.org/2000/svg">
<path d="M0 2.46816V1.75C0 1.28587 0.190959 0.840752 0.530869 0.512563C0.870779 0.184374 1.3318 0 1.8125 0L27.1875 0C27.6682 0 28.1292 0.184374 28.4691 0.512563C28.809 0.840752 29 1.28587 29 1.75V2.46816L14.5 11.2182L0 2.46816ZM14.9803 12.9922C14.8362 13.079 14.6698 13.1251 14.5 13.1251C14.3302 13.1251 14.1638 13.079 14.0197 12.9922L0 4.53184V19.25C0 19.7141 0.190959 20.1592 0.530869 20.4874C0.870779 20.8156 1.3318 21 1.8125 21H27.1875C27.6682 21 28.1292 20.8156 28.4691 20.4874C28.809 20.1592 29 19.7141 29 19.25V4.53184L14.9803 12.9922Z" fill="#E6E6E6"/>
</svg>
