<svg width="32" height="32" viewBox="0 0 32 32" fill="none" xmlns="http://www.w3.org/2000/svg">
<path d="M12.9642 7.34286C12.5477 2.54911 7.54967 0.19696 7.33815 0.100954C7.14041 0.00794568 6.91882 -0.0217705 6.70358 0.0158581C0.933575 0.973736 0.0656754 4.33395 0.030785 4.47359C-0.0166849 4.66819 -0.00913483 4.87217 0.0525915 5.06272C6.93473 26.4284 21.2376 30.3887 25.9391 31.6913C26.3011 31.7917 26.5999 31.8724 26.8266 31.9466C27.0854 32.0312 27.3666 32.0148 27.6139 31.9008C27.7578 31.8353 31.1552 30.2338 31.9861 25.0102C32.0229 24.7821 31.9862 24.5483 31.8814 24.3425C31.8072 24.1985 30.03 20.8143 25.1017 19.6185C24.9346 19.5758 24.7595 19.5743 24.5916 19.6142C24.4237 19.6541 24.268 19.7342 24.1379 19.8476C22.5831 21.1765 20.4351 22.5925 19.5084 22.7387C13.2957 19.6993 9.82627 13.8669 9.69544 12.7607C9.61911 12.1388 11.0431 9.95466 12.6807 8.17855C12.7837 8.06677 12.8621 7.93466 12.9109 7.79073C12.9597 7.64681 12.9779 7.49424 12.9642 7.34286Z" fill="#E6E6E6"/>
</svg>
