<svg width="39" height="40" viewBox="0 0 39 40" fill="none" xmlns="http://www.w3.org/2000/svg">
    <path
        d="M31.5282 30.758L31.5567 30.8032L31.5941 30.8414L38.0701 37.456L38.087 37.542L38.19 37.6484C38.6029 38.0747 38.6034 38.765 38.1913 39.1918C37.7855 39.6031 37.1349 39.6027 36.7295 39.1907C36.7294 39.1906 36.7294 39.1905 36.7293 39.1905L30.9034 33.24L30.5858 32.9156L30.2324 33.2005C23.2793 38.8045 13.363 38.3792 6.89382 32.1975C0.420665 26.012 -0.65844 15.9183 4.36002 8.4497C9.37572 0.985178 18.9712 -1.60981 26.9398 2.33032C34.9125 6.27246 38.878 15.5808 36.2542 24.2378L36.2537 24.2392C36.1417 24.6128 35.8454 24.8904 35.4837 24.9755C35.1228 25.0603 34.7422 24.9431 34.4853 24.6614C34.2274 24.3786 34.1347 23.9734 34.2467 23.5992C36.5695 15.8794 32.9282 7.58906 25.7199 4.23104C18.5074 0.87105 9.97882 3.50015 5.79 10.3598C1.60378 17.2151 3.04325 26.1794 9.16208 31.3106C15.2853 36.4454 24.1904 36.1438 29.9667 30.6076L29.9741 30.6005L29.9812 30.5931C30.1749 30.3917 30.4373 30.2803 30.709 30.2803C30.9655 30.2803 31.214 30.3797 31.404 30.5605L31.5282 30.758Z"
        fill="#200E32" stroke="#581EFF" />
</svg>