<svg width="27" height="26" viewBox="0 0 27 26" fill="none" xmlns="http://www.w3.org/2000/svg">
<path d="M19.6762 8.28245C20.5042 7.31642 21.3263 5.06235 17.876 7.79944C14.6529 10.3872 11.408 12.9377 8.14171 15.4507C7.64432 15.7131 7.10661 15.8554 6.56087 15.8693C6.01513 15.8831 5.47263 15.7681 4.96595 15.5312C2.89578 14.8067 0.479078 13.8406 0.479078 13.8406C0.479078 13.8406 -1.17106 12.6313 1.65367 11.3433C1.65367 11.3433 13.5962 5.62587 17.738 3.61156C19.3251 2.80653 24.7091 0.230451 24.7091 0.230451C24.7091 0.230451 27.1948 -0.898334 26.9878 1.8405C26.9187 2.96754 26.3667 6.91566 25.8147 11.1823C24.9851 17.2217 24.088 23.8264 24.088 23.8264C24.088 23.8264 23.95 25.678 22.7769 26C21.5211 25.9752 20.3078 25.4656 19.3266 24.551C19.0506 24.3094 14.1497 20.6851 12.3541 18.914C12.1714 18.7697 12.023 18.5738 11.9227 18.3445C11.8223 18.1153 11.7733 17.8602 11.7802 17.603C11.7871 17.3457 11.8497 17.0947 11.9621 16.8732C12.0744 16.6517 12.233 16.467 12.4231 16.3362C14.8859 13.7075 17.3041 11.0224 19.6762 8.28245Z" fill="#E6E6E6"/>
</svg>
