<svg xmlns="http://www.w3.org/2000/svg" xmlns:v="https://svgstorm.com"
    viewBox="0 0 160 80"
    width="160"
    height="80">
    <g fill="None" fill-opacity="0.0" stroke="#000000" stroke-opacity="0.00" stroke-width="0.3">
        <path
            d="
M 0.00 80.00 
L 160.00 80.00
L 160.00 0.00
L 0.00 0.00
L 0.00 80.00
M 131.00 25.00 
C 131.00 18.67 131.00 12.33 131.00 6.00
C 142.57 6.70 134.93 24.26 137.00 33.00 C 139.07 41.74 133.82 51.48 125.97 54.97 C 118.13 58.46 107.56 56.27 102.75 48.25 C 97.95 40.23 100.07 31.05 106.75 24.75 C 113.43 18.45 123.87 19.53 131.00 25.00
M 34.00 52.00 
C 29.18 55.68 22.65 57.61 16.98 56.02 C 11.30 54.44 6.83 51.13 4.70 45.30 C 2.56 39.48 3.83 31.45 7.75 26.75 C 11.67 22.05 18.06 19.51 23.67 20.33 C 29.28 21.15 34.72 24.36 37.75 29.25 C 40.79 34.14 40.90 44.63 40.00 50.00 C 39.10 55.37 43.40 68.59 37.92 70.92 C 32.43 73.25 33.92 55.19 34.00 52.00
M 60.00 52.00 
C 58.57 58.17 64.16 72.14 54.00 71.00
C 56.42 56.64 48.19 34.81 60.25 24.25 C 72.30 13.69 90.40 24.03 90.00 39.00 C 89.60 53.97 71.58 62.62 60.00 52.00
M 144.00 76.00 
C 138.60 77.71 127.77 77.40 124.75 70.25 C 121.73 63.10 135.98 66.00 140.00 61.00
C 144.00 56.03 138.37 42.46 145.01 43.01 C 151.64 43.56 156.22 53.43 156.00 60.00 C 155.78 66.57 150.83 73.84 144.00 76.00 Z" />
    </g>
    <g fill="None" fill-opacity="0.0" stroke="#FFFFFF" stroke-opacity="0.83" stroke-width="0.3">
        <path
            d="
M 131.00 25.00 
C 123.87 19.53 113.43 18.45 106.75 24.75 C 100.07 31.05 97.95 40.23 102.75 48.25 C 107.56 56.27 118.13 58.46 125.97 54.97 C 133.82 51.48 139.07 41.74 137.00 33.00 C 134.93 24.26 142.57 6.70 131.00 6.00
C 131.00 12.33 131.00 18.67 131.00 25.00
M 123.00 26.00 
C 137.94 30.05 129.51 56.89 114.33 50.67 C 99.15 44.45 107.19 21.72 123.00 26.00 Z" />
    </g>
    <g fill="None" fill-opacity="0.0" stroke="#FFFFFF" stroke-opacity="0.83" stroke-width="0.3">
        <path
            d="
M 34.00 52.00 
C 33.92 55.19 32.43 73.25 37.92 70.92 C 43.40 68.59 39.10 55.37 40.00 50.00 C 40.90 44.63 40.79 34.14 37.75 29.25 C 34.72 24.36 29.28 21.15 23.67 20.33 C 18.06 19.51 11.67 22.05 7.75 26.75 C 3.83 31.45 2.56 39.48 4.70 45.30 C 6.83 51.13 11.30 54.44 16.98 56.02 C 22.65 57.61 29.18 55.68 34.00 52.00
M 26.00 26.00 
C 41.64 29.88 32.43 57.30 17.33 50.67 C 2.23 44.04 10.64 22.19 26.00 26.00 Z" />
    </g>
    <g fill="None" fill-opacity="0.0" stroke="#FFFFFF" stroke-opacity="0.83" stroke-width="0.3">
        <path
            d="
M 60.00 52.00 
C 71.58 62.62 89.60 53.97 90.00 39.00 C 90.40 24.03 72.30 13.69 60.25 24.25 C 48.19 34.81 56.42 56.64 54.00 71.00
C 64.16 72.14 58.57 58.17 60.00 52.00
M 76.00 26.00 
C 91.05 29.73 83.78 56.01 68.33 50.67 C 52.87 45.33 60.10 22.06 76.00 26.00 Z" />
    </g>
    <g fill="None" fill-opacity="0.0" stroke="#000000" stroke-opacity="0.00" stroke-width="0.3">
        <path
            d="
M 26.00 26.00 
C 10.64 22.19 2.23 44.04 17.33 50.67 C 32.43 57.30 41.64 29.88 26.00 26.00 Z" />
    </g>
    <g fill="None" fill-opacity="0.0" stroke="#000000" stroke-opacity="0.00" stroke-width="0.3">
        <path
            d="
M 76.00 26.00 
C 60.10 22.06 52.87 45.33 68.33 50.67 C 83.78 56.01 91.05 29.73 76.00 26.00 Z" />
    </g>
    <g fill="None" fill-opacity="0.0" stroke="#000000" stroke-opacity="0.00" stroke-width="0.3">
        <path
            d="
M 123.00 26.00 
C 107.19 21.72 99.15 44.45 114.33 50.67 C 129.51 56.89 137.94 30.05 123.00 26.00 Z" />
    </g>
    <g fill="None" fill-opacity="0.0" stroke="#FEFDFF" stroke-opacity="0.89" stroke-width="0.3">
        <path
            d="
M 140.00 61.00 
C 140.39 65.09 148.81 71.04 144.00 76.00
C 150.83 73.84 155.78 66.57 156.00 60.00 C 156.22 53.43 151.64 43.56 145.01 43.01 C 138.37 42.46 144.00 56.03 140.00 61.00 Z" />
    </g>
    <g fill="None" fill-opacity="0.0" stroke="#420EFF" stroke-opacity="0.36" stroke-width="0.3">
        <path
            d="
M 144.00 76.00 
C 148.81 71.04 140.39 65.09 140.00 61.00
C 135.98 66.00 121.73 63.10 124.75 70.25 C 127.77 77.40 138.60 77.71 144.00 76.00 Z" />
    </g>
    <g fill="#000000" fill-opacity="0.00" stroke="None">
        <path
            d="
M 0.00 80.00 
L 160.00 80.00
L 160.00 0.00
L 0.00 0.00
L 0.00 80.00
M 131.00 25.00 
C 131.00 18.67 131.00 12.33 131.00 6.00
C 142.57 6.70 134.93 24.26 137.00 33.00 C 139.07 41.74 133.82 51.48 125.97 54.97 C 118.13 58.46 107.56 56.27 102.75 48.25 C 97.95 40.23 100.07 31.05 106.75 24.75 C 113.43 18.45 123.87 19.53 131.00 25.00
M 34.00 52.00 
C 29.18 55.68 22.65 57.61 16.98 56.02 C 11.30 54.44 6.83 51.13 4.70 45.30 C 2.56 39.48 3.83 31.45 7.75 26.75 C 11.67 22.05 18.06 19.51 23.67 20.33 C 29.28 21.15 34.72 24.36 37.75 29.25 C 40.79 34.14 40.90 44.63 40.00 50.00 C 39.10 55.37 43.40 68.59 37.92 70.92 C 32.43 73.25 33.92 55.19 34.00 52.00
M 60.00 52.00 
C 58.57 58.17 64.16 72.14 54.00 71.00
C 56.42 56.64 48.19 34.81 60.25 24.25 C 72.30 13.69 90.40 24.03 90.00 39.00 C 89.60 53.97 71.58 62.62 60.00 52.00
M 144.00 76.00 
C 138.60 77.71 127.77 77.40 124.75 70.25 C 121.73 63.10 135.98 66.00 140.00 61.00
C 144.00 56.03 138.37 42.46 145.01 43.01 C 151.64 43.56 156.22 53.43 156.00 60.00 C 155.78 66.57 150.83 73.84 144.00 76.00 Z" />
    </g>
    <g fill="#FFFFFF" fill-opacity="0.83" stroke="None">
        <path
            d="
M 131.00 25.00 
C 123.87 19.53 113.43 18.45 106.75 24.75 C 100.07 31.05 97.95 40.23 102.75 48.25 C 107.56 56.27 118.13 58.46 125.97 54.97 C 133.82 51.48 139.07 41.74 137.00 33.00 C 134.93 24.26 142.57 6.70 131.00 6.00
C 131.00 12.33 131.00 18.67 131.00 25.00
M 123.00 26.00 
C 137.94 30.05 129.51 56.89 114.33 50.67 C 99.15 44.45 107.19 21.72 123.00 26.00 Z" />
    </g>
    <g fill="#FFFFFF" fill-opacity="0.83" stroke="None">
        <path
            d="
M 34.00 52.00 
C 33.92 55.19 32.43 73.25 37.92 70.92 C 43.40 68.59 39.10 55.37 40.00 50.00 C 40.90 44.63 40.79 34.14 37.75 29.25 C 34.72 24.36 29.28 21.15 23.67 20.33 C 18.06 19.51 11.67 22.05 7.75 26.75 C 3.83 31.45 2.56 39.48 4.70 45.30 C 6.83 51.13 11.30 54.44 16.98 56.02 C 22.65 57.61 29.18 55.68 34.00 52.00
M 26.00 26.00 
C 41.64 29.88 32.43 57.30 17.33 50.67 C 2.23 44.04 10.64 22.19 26.00 26.00 Z" />
    </g>
    <g fill="#FFFFFF" fill-opacity="0.83" stroke="None">
        <path
            d="
M 60.00 52.00 
C 71.58 62.62 89.60 53.97 90.00 39.00 C 90.40 24.03 72.30 13.69 60.25 24.25 C 48.19 34.81 56.42 56.64 54.00 71.00
C 64.16 72.14 58.57 58.17 60.00 52.00
M 76.00 26.00 
C 91.05 29.73 83.78 56.01 68.33 50.67 C 52.87 45.33 60.10 22.06 76.00 26.00 Z" />
    </g>
    <g fill="#000000" fill-opacity="0.00" stroke="None">
        <path
            d="
M 26.00 26.00 
C 10.64 22.19 2.23 44.04 17.33 50.67 C 32.43 57.30 41.64 29.88 26.00 26.00 Z" />
    </g>
    <g fill="#000000" fill-opacity="0.00" stroke="None">
        <path
            d="
M 76.00 26.00 
C 60.10 22.06 52.87 45.33 68.33 50.67 C 83.78 56.01 91.05 29.73 76.00 26.00 Z" />
    </g>
    <g fill="#000000" fill-opacity="0.00" stroke="None">
        <path
            d="
M 123.00 26.00 
C 107.19 21.72 99.15 44.45 114.33 50.67 C 129.51 56.89 137.94 30.05 123.00 26.00 Z" />
    </g>
    <g fill="#FEFDFF" fill-opacity="0.89" stroke="None">
        <path
            d="
M 140.00 61.00 
C 140.39 65.09 148.81 71.04 144.00 76.00
C 150.83 73.84 155.78 66.57 156.00 60.00 C 156.22 53.43 151.64 43.56 145.01 43.01 C 138.37 42.46 144.00 56.03 140.00 61.00 Z" />
    </g>
    <g fill="#420EFF" fill-opacity="0.36" stroke="None">
        <path
            d="
M 144.00 76.00 
C 148.81 71.04 140.39 65.09 140.00 61.00
C 135.98 66.00 121.73 63.10 124.75 70.25 C 127.77 77.40 138.60 77.71 144.00 76.00 Z" />
    </g>
</svg>